<?xml version="1.0" encoding="UTF-8"?>
<svg id="Layer_1" data-name="Layer 1" xmlns="http://www.w3.org/2000/svg" xmlns:xlink="http://www.w3.org/1999/xlink" viewBox="0 0 286.4 286.3">
  <defs>
    <linearGradient id="linear-gradient" x1="142.2" y1="-22.24" x2="142.2" y2="290.85" gradientUnits="userSpaceOnUse">
      <stop offset="0" stop-color="#ddbe96"/>
      <stop offset="1" stop-color="#cb8669"/>
    </linearGradient>
  </defs>
  <path d="M81.75,236.34c-29.73-31.3-46.68-72.77-43.76-116.6C44.21,26.53,163.33-34.52,230.73,43.36c29.35,33.92,16.5,82.35-23.67,99.64-2.63,1.13-6.95,1.24-8.38,3.67l-46.55,135.19c-.44.78-.86.48-1.52.36-1.87-.34-8.22-3.61-10.44-4.67-22.83-10.92-41.05-22.92-58.42-41.21ZM212.47,38.44c-32.48-28.97-78.11-26.74-112.99-3.46-3.11,2.07-20.06,15.15-19.92,17.99,2.19,1.7,5.92.72,8.71.9,16.06,1.04,32.65-.47,48.77-.64,24.58-.25,49.03.63,73.49,1.26,3.1.08,9.37.47,12.07-.03,1.62-.3,1.75-.98,1.2-2.38-.93-2.36-9.15-11.7-11.34-13.65ZM215.08,62.3c-3.48-.17-7.06.23-10.53,0-30.42-2.12-61.17-1.76-91.54-1.82-9.74-.02-19.53-.19-29.25.33l64.76,46.02c1.27-9.48,4.88-19.36,14.76-22.57,7.46-2.42,15.2-1.96,22.46.82l27.82-20.39,1.52-2.38ZM202.44,136.28c11.77-.54,20.95-9.06,26.99-18.46,8.79-13.69,12.52-27.93,7.37-43.82-1.39-4.28-3.47-9.42-6.95-12.31l-27.4,74.58ZM145.2,273.42c-2.83-8.99-6.8-17.61-9.91-26.49-19.48-55.54-36.39-112.14-56.33-167.51-.8-2.22-5.22-14.93-6.43-15.27-2.28-.65-6.25,5.52-7.57,7.33-12.63,17.34-19.6,48.05-18.57,69.33,2.67,54.77,45.26,108.5,93.97,131.13,1.52.71,3.11,1.51,4.84,1.48ZM221.1,65.9l-31.91,22.55c7.1,7.16,7.8,16.51,2.9,25.17-.74,1.31-2.53,1.91-2.31,3.64,2.1,5.48,3.07,12.06,6.93,16.61l24.39-67.97ZM192.19,146.51c-21.99,3.05-43.13-10.19-44.72-33.24-17.05-13.94-36.2-25.66-54.27-38.44-1.62-1.14-9.33-8.11-10.64-7.11,4.92,13.56,8.79,27.49,13.24,41.21,11.56,35.65,23.76,71.12,36.18,106.44,5.76,16.37,11.19,32.87,17.45,49.05,1.07,1.04,2.02-2.3,2.25-2.85,11.28-26.18,21.21-57.19,30.54-84.39,3.48-10.15,6.47-20.51,9.96-30.65ZM175.87,88.81c-.16-.24-2.1-.6-2.65-.65-9.84-.94-19.61,8.01-18.69,18.05.93,1.13,1.03.5,1.82,0,6.53-4.17,12.26-10.07,18.69-14.42.79-.47,1.28-2.31.83-2.97ZM186.78,109.81c3.51-.83,4.47-6.37,3.8-9.47-1.26-5.89-4.53-8.25-9.82-10.38l6.02,19.85ZM157.86,110.41h12.35c2.76-3.4,4.77-8.18,6.34-12.32.21-.55,1.08-1.78.28-2.12-3.07,1.29-5.78,3.46-8.41,5.44-2.98,2.24-7.04,5.26-9.79,7.63-.43.37-1.13-.03-.77,1.38ZM180.14,101.99c-1.41-.3-.96.19-1.34.78-.4.62-3.76,6.78-3.47,7.04h6.62s-1.81-7.82-1.81-7.82ZM183.16,113.43c-2.02.17-4.37-.26-6.34,0-.84.11-1.73.32-.89,1.2,2.36.63,5.9,1.68,7.23-1.19ZM171.71,114.02h-12.05c10.24,8.44,20.65,16.85,32.22,23.47l-6.93-19.26c-2.97,2.03-9.74,1.06-12.06-1.48-.85-.93-1.06-2.64-1.19-2.72ZM153.64,117.64c1.48,11.29,10.74,20.11,21.66,22.58,1.56.35,11.47,1.94,11.46-.02l-33.12-22.55Z" fill="url(#linear-gradient)"/>
</svg>